# xmcd
#
# Track frame offsets:
#	150
#	12160
#	25092
#	40622
#	54650
#	72452
#	88322
#	103295
#	119717
#	130375
#	143742
#	155062
#	168897
#	182185
#	194490
#
# Disc length: 2719 seconds
#
# Revision: 1
# Processed by: cddbd v1.5.2PL0 Copyright (c) Steve Scherf et al.
# Submitted via: EasyCDDAExtractor 2011.0.0.0
#
DISCID=dd0a9d0f
DTITLE=한국가요사 - 한국가요사 02
DYEAR=1900
DGENRE=
TTITLE0=김정구 - 눈물젖은 두만강
TTITLE1=몰라 - 봄맞이
TTITLE2=백년설 - 번지없는 주막
TTITLE3=바니걸즈 - 막간 아가씨
TTITLE4=진방남 - 불효자는 웁니다
TTITLE5=김영춘 - 홍도야 울지마라
TTITLE6=남인수 - 감격시대
TTITLE7=고복수 - 짝사랑
TTITLE8=하춘화 - 맹꽁이 타령
TTITLE9=백년설 - 나그네 설움
TTITLE10=황금심 - 알뜰한 당신
TTITLE11=진방남 - 꽃마차
TTITLE12=이미자 백설희 - 애수의 소야곡
TTITLE13=고복수 - 휘파람
TTITLE14=신카나리아 - 나는 17살이에요
EXTD=
EXTT0=
EXTT1=
EXTT2=
EXTT3=
EXTT4=
EXTT5=
EXTT6=
EXTT7=
EXTT8=
EXTT9=
EXTT10=
EXTT11=
EXTT12=
EXTT13=
EXTT14=
PLAYORDER=
